<svg xmlns="http://www.w3.org/2000/svg" xmlns:xlink="http://www.w3.org/1999/xlink" version="1.1" x="0px" y="0px" viewBox="0 0 512 640" style="enable-background:new 0 0 512 512;" xml:space="preserve"><g><g><g><path d="M251.001,216c19.299,0,35-15.701,35-35s-15.701-35-35-35c-19.299,0-35,15.701-35,35S231.702,216,251.001,216z"/><path d="M351.001,296c8.27,0,15-6.728,15-15s-6.73-15-15-15c-8.272,0-15,6.728-15,15S342.729,296,351.001,296z"/><path d="M186.001,361c0,8.272,6.728,15,15,15c8.27,0,15-6.728,15-15s-6.73-15-15-15C192.729,346,186.001,352.728,186.001,361z"/><path d="M81.001,416c-8.271,0-15,6.728-15,15s6.729,15,15,15s15-6.728,15-15S89.271,416,81.001,416z"/><path d="M436.001,96c11.027,0,20-8.972,20-20s-8.973-20-20-20c-11.028,0-20,8.972-20,20S424.973,96,436.001,96z"/><circle cx="151" cy="51" r="10"/><circle cx="331" cy="51" r="10"/><circle cx="461" cy="171" r="10"/><circle cx="451" cy="461" r="10"/><circle cx="271" cy="461" r="10"/><circle cx="141" cy="441" r="10"/><circle cx="61" cy="341" r="10"/><circle cx="51" cy="131" r="10"/><path d="M106.657,202.474c-23.882,62.828-7.68,137.951,48.267,184.909c29.673,24.905,67.313,38.621,105.989,38.621     c30.15,0,59.221-8.153,84.447-23.167c-39.408-19.912-84.871-50.877-129.361-88.219     C171.492,277.263,133.102,237.843,106.657,202.474z M141,301c-5.523,0-10-4.478-10-10s4.477-10,10-10c5.523,0,10,4.478,10,10     S146.523,301,141,301z M281,381c5.522,0,10,4.478,10,10s-4.478,10-10,10c-5.523,0-10-4.478-10-10S275.477,381,281,381z      M226.001,361c0,13.785-11.215,25-25,25c-13.785,0-25-11.215-25-25s11.215-25,25-25C214.786,336,226.001,347.215,226.001,361z"/><path d="M157.836,132.217c-16.8,13.477-30.965,30.227-41.555,49.467c52.693,75.094,164.802,169.186,247.893,208.071     c16.406-13.158,30.686-29.708,41.558-49.461c-4.007-6.226-0.094-14.587,7.418-15.323     c26.942-63.857,11.583-141.963-46.072-190.355c-55.396-46.498-134.748-51.48-195.437-12.354     C172.192,129.606,164.771,135.106,157.836,132.217z M281,281c-5.523,0-10-4.478-10-10s4.477-10,10-10c5.522,0,10,4.478,10,10     S286.522,281,281,281z M351.001,256c13.785,0,25,11.215,25,25s-11.215,25-25,25c-13.785,0-25-11.215-25-25     S337.216,256,351.001,256z M251.001,136c24.813,0,45,20.187,45,45s-20.188,45-45,45c-24.814,0-45-20.187-45-45     S226.188,136,251.001,136z M181,171c5.523,0,10,4.477,10,10s-4.477,10-10,10c-5.523,0-10-4.477-10-10S175.477,171,181,171z"/><path d="M418.232,332.03c-1.585-2.263-4.702-2.814-6.964-1.229c-2.262,1.583-2.813,4.701-1.229,6.963     c22.859,32.656,31.57,58.033,23.301,67.886c-8.268,9.85-34.772,5.671-70.896-11.179     c-84.038-39.199-197.307-134.269-250.484-210.236c-22.858-32.656-31.568-58.034-23.3-67.885     c8.268-9.852,34.771-5.673,70.897,11.178c2.504,1.167,5.478,0.084,6.646-2.417c1.167-2.503,0.084-5.478-2.418-6.645     c-29.492-13.756-67.794-26.406-82.785-8.544c-14.99,17.861,4.107,53.389,22.768,80.048     c54.174,77.392,168.818,173.622,254.449,213.565c23.036,10.746,66.494,27.956,82.784,8.545     C455.993,394.217,436.895,358.69,418.232,332.03z"/></g></g></g><text x="0" y="527" fill="#000000" font-size="5px" font-weight="bold" font-family="'Helvetica Neue', Helvetica, Arial-Unicode, Arial, Sans-serif">Created by Flatart</text><text x="0" y="532" fill="#000000" font-size="5px" font-weight="bold" font-family="'Helvetica Neue', Helvetica, Arial-Unicode, Arial, Sans-serif">from the Noun Project</text></svg>